<svg width="121" height="44" viewBox="0 0 121 44" fill="none" xmlns="http://www.w3.org/2000/svg">
<g clip-path="url(#clip0_2034_4214)">
<path d="M62.7619 21.9467C62.7619 28.9739 57.1178 33.8933 50.8348 33.8933C44.5517 33.8933 38.9077 28.975 38.9077 21.9467C38.9077 14.9183 44.5507 10 50.8337 10C57.1168 10 62.7608 14.9194 62.7608 21.9467H62.7619ZM57.5966 21.9467C57.5966 13.623 55.0946 11.1897 50.8337 11.1897C46.5728 11.1897 44.0708 13.6219 44.0708 21.9467C44.0708 30.2714 46.5208 32.7047 50.8337 32.7047C55.1466 32.7047 57.5966 30.2714 57.5966 21.9467Z" fill="white"/>
<path d="M75.9117 32.1088H79.3192C79.6928 32.1088 79.9582 32.3254 79.9582 32.7047C79.9582 33.0841 79.6918 33.2996 79.3192 33.2996H67.2329C66.8603 33.2996 66.5939 33.083 66.5939 32.7047C66.5939 32.3265 66.8603 32.1088 67.2329 32.1088H69.4695C70.1605 32.1088 70.5342 31.7844 70.5342 30.8663V13.8924C70.5342 12.4322 70.0013 11.8923 68.7763 11.8923H67.2318C66.8592 11.8923 66.5928 11.6768 66.5928 11.2975C66.5928 10.9181 66.8592 10.7026 67.2318 10.7026H71.3855C74.0477 10.7026 74.846 11.3514 74.846 13.5681V14.9733C76.3374 12.2706 79.213 10 82.354 10C84.6968 10 86.1882 11.6768 86.1882 14.0002C86.1882 16.0003 84.9632 17.1889 83.4187 17.1889C81.8742 17.1889 81.0229 16.2169 81.0229 15.081C81.0229 13.9452 82.0345 13.2426 82.0345 12.4872C82.0345 12.054 81.715 11.7307 80.9157 11.7307C78.7863 11.7307 74.846 14.9733 74.846 19.4606V30.8663C74.846 31.7844 75.2196 32.1088 75.9107 32.1088H75.9117Z" fill="white"/>
<path d="M102.427 29.7304C101.149 31.7844 98.008 33.8933 94.1208 33.8933C90.2335 33.8933 87.5713 32.001 87.5713 28.6496C87.5713 20.7031 99.6045 23.1364 102 18.8668V16.163C102 12.3794 100.563 11.2447 97.6874 11.2447C95.0782 11.2447 93.8533 12.0551 93.8533 13.2437C93.8533 14.4323 94.8118 14.8655 94.8118 16.3796C94.8118 17.5144 93.9594 18.3797 92.6824 18.3797C91.0849 18.3797 90.1794 17.2988 90.1794 15.677C90.1794 12.3256 94.0666 10 98.06 10C103.97 10 106.313 12.9193 106.313 18.3786V28.4868C106.313 30.5947 107.057 32.0538 109.613 32.0538C109.987 32.0538 110.306 31.9999 110.519 31.9999C110.838 31.9999 110.998 32.1615 110.998 32.4331C110.998 32.7575 110.838 32.8653 110.359 33.0819C109.932 33.2985 109.4 33.4601 108.069 33.4601C104.875 33.4601 102.958 32.3793 102.425 29.7304H102.427ZM96.1971 32.0549C98.9666 32.0549 102 29.7854 102 27.2443V20.6492C98.9655 23.0814 92.2037 22.5415 92.2037 28.4879C92.2037 30.974 93.694 32.0549 96.1971 32.0549Z" fill="white"/>
<path d="M25.5025 28.1837L25.4917 28.2167L24.3631 25.7845L19.2086 14.7582C18.8891 14.0555 18.5165 13.3529 18.5165 12.7581C18.5165 12.2171 18.9953 11.8927 19.7415 11.8927H21.7149C22.1103 11.8927 22.4276 11.5211 22.3312 11.1318C22.2641 10.8569 22.0258 10.7041 21.7117 10.7041H10.6337C10.2373 10.7041 9.92106 11.0758 10.0175 11.4661C10.0846 11.741 10.3229 11.8938 10.637 11.8938H11.3291C12.8194 11.8938 13.2992 12.3798 14.3639 14.7043L23.3601 33.996C23.3601 33.996 23.3645 34.0004 23.3677 34.0004H24.1562C24.1562 34.0004 24.1616 33.9982 24.1638 33.996L26.1935 29.6472C26.1935 29.6472 26.1935 29.6428 26.1935 29.6406L25.5025 28.1848V28.1837Z" fill="white"/>
<path d="M25.6714 10.7041L34.5929 10.714C34.9156 10.714 35.1236 11.0604 34.9752 11.3517L30.3471 20.4649C30.3471 20.4649 31.8277 16.1546 30.3471 13.7444C28.7712 11.1791 25.6714 10.7041 25.6714 10.7041Z" fill="white"/>
</g>
<defs>
<clipPath id="clip0_2034_4214">
<rect width="101" height="24" fill="white" transform="translate(10 10)"/>
</clipPath>
</defs>
</svg>
